<svg xmlns="http://www.w3.org/2000/svg" viewBox="0 0 599.88 114"><path d="M214.85,91.25H190v22.12h-6.37V64.58H190V86h24.85V64.58h6.37v48.79h-6.37Z" fill="#0279cc"/><path d="M246.56,74.38c7.14,0,12,3.64,14.28,7.63V75h6.44v38.36h-6.44v-7.14c-2.31,4.13-7.28,7.77-14.35,7.77-10.22,0-18.13-8-18.13-20S236.27,74.38,246.56,74.38Zm1.26,5.53c-7,0-12.95,5.11-12.95,14.14s5.95,14.35,12.95,14.35,13-5.25,13-14.28S254.82,79.91,247.82,79.91Z" fill="#0279cc"/><path d="M304.87,91.67c0-7.84-4.27-11.83-10.71-11.83s-11,4.06-11,12.32v21.21H276.8V75h6.37v5.46c2.52-4,7.14-6.16,12.32-6.16,8.89,0,15.68,5.46,15.68,16.45v22.61h-6.3Z" fill="#0279cc"/><path d="M341.06,74.38c10.36,0,18.2,7.7,18.2,19.67s-7.91,20-18.2,20c-7,0-12-3.5-14.35-7.7v7.07h-6.37V61.56h6.37V82.15A16.25,16.25,0,0,1,341.06,74.38Zm-1.33,5.53c-6.93,0-13,5.32-13,14.21s6.09,14.28,13,14.28,13-5.32,13-14.35S346.8,79.91,339.73,79.91Z" fill="#0279cc"/><path d="M365.35,64.43a4.27,4.27,0,1,1,4.34,4.35A4.27,4.27,0,0,1,365.35,64.43Zm1,10.58h6.37v38.36H366.4Z" fill="#0279cc"/><path d="M388.73,113.37h-6.37V75h6.37v6.23c2.17-4.27,6.3-6.93,12.39-6.93v6.58h-1.68c-6.09,0-10.71,2.73-10.71,11.62Z" fill="#0279cc"/><path d="M423.94,114c-10.85,0-19.11-7.7-19.11-19.88s8.54-19.74,19.39-19.74S443.61,82,443.61,94.12,434.86,114,423.94,114Zm0-5.6c6.65,0,13.16-4.55,13.16-14.28s-6.37-14.21-13-14.21-12.81,4.55-12.81,14.21S417.29,108.4,423.94,108.4Z" fill="#0279cc"/><path d="M470.78,63.52h7.06l18.43,41.19L514.7,63.52h7v49.83h-6.55V76.2l-16.57,37.15H494L477.33,76.12v37.23h-6.55Z" fill="#003d5f"/><path d="M547.1,73.24c7.35,0,12.39,3.75,14.69,7.85v-7.2h6.63v39.46h-6.63V106c-2.38,4.24-7.49,8-14.76,8-10.51,0-18.65-8.28-18.65-20.52S536.52,73.24,547.1,73.24Zm1.3,5.69c-7.2,0-13.32,5.26-13.32,14.55s6.12,14.76,13.32,14.76,13.39-5.4,13.39-14.69C561.79,84.41,555.6,78.93,548.4,78.93Z" fill="#003d5f"/><path d="M576.48,63a4.39,4.39,0,1,1,4.46,4.46A4.4,4.4,0,0,1,576.48,63Zm1.08,10.87h6.55v39.46h-6.55Z" fill="#003d5f"/><path d="M593.32,60.07h6.56v53.28h-6.56Z" fill="#003d5f"/><rect x="145.46" y="19.18" width="57.05" height="12.55" rx="6.28" fill="#003d5f"/><rect x="143.2" y="38.36" width="25.21" height="12.55" rx="6.28" fill="#003d5f"/><path d="M76,67.23a8.91,8.91,0,0,1-5.39,2.63,8.58,8.58,0,0,1-6.95-2.48L29.76,33.52a6.19,6.19,0,0,0-8.76,0h0a6.19,6.19,0,0,0,0,8.76L54.86,76.14a21,21,0,0,0,29.71,0L118.21,42.5a6.2,6.2,0,0,0,0-8.77h0a6.19,6.19,0,0,0-8.76,0Z" fill="#003d5f"/><path d="M196.24,0H25.32A25.32,25.32,0,0,0,0,25.32V88.68A25.32,25.32,0,0,0,25.32,114h88.57a25.32,25.32,0,0,0,25.32-25.32V25.32a7,7,0,0,0-.09-.81A6.19,6.19,0,0,0,133,19.18h0a6.21,6.21,0,0,0-6.17,5.64h0a1.57,1.57,0,0,0,0,.26c0,.1,0,.2,0,.3V70c0,.18,0,.35,0,.53V88.68a12.94,12.94,0,0,1-12.93,12.93H25.32A12.94,12.94,0,0,1,12.39,88.68V25.32A12.94,12.94,0,0,1,25.32,12.39H68.18a6.46,6.46,0,0,0,1.4.16H196.24a6.28,6.28,0,1,0,0-12.55Z" fill="#0279cc"/></svg>